:FULLY-SPECIFIED
:FORCE-ALL-JOINTS-BE-3DOF
:DEGREES
2242
root -0.738098 13.835 -16.4042 -172.958 -25.9729 170.564
lfemur 8.84039 1.08539 -14.1995
ltibia 39.5562 0 0
lfoot -25.2434 35.2357 0.00874273
ltoes -39.6746 0 0
rfemur -66.4151 -20.3548 8.01548
rtibia 68.4057 0 0
rfoot -2.31066 13.3502 -0.0620732
rtoes 2.431 0 0
lowerback 11.2676 2.04227 -12.8085
upperback -2.15308 0.603061 -1.45315
thorax -8.88587 0.847033 5.53475
lowerneck 1.13264 -11.5806 -12.5809
upperneck 5.46904 -16.2026 9.98897
head 3.29205 -8.16496 4.35194
lclavicle 3.44033e-14 4.60399e-15 3.61817e-31
lhumerus -66.6566 -18.9196 104.207
lradius 101.072 0 0
lwrist 57.6975 0 0
lhand -9.77935 65.2474 0.214049
lfingers 7.12502 0 0
lthumb 16.0387 -32.483 -2.49374
rclavicle 3.44033e-14 4.60399e-15 3.61817e-31
rhumerus 47.1208 -8.85668 -61.1516
rradius 20.1539 0 0
rwrist 33.1665 0 0
rhand -16.6686 -42.5031 0.334438
rfingers 7.12502 0 0
rthumb 8.84144 -70.2852 1.62511
2243
root -0.741698 13.8283 -16.4291 -172.829 -25.9168 170.527
lfemur 8.87187 1.05243 -14.2935
ltibia 39.2963 0 0
lfoot -25.1619 35.2426 0.0097161
ltoes -39.8802 0 0
rfemur -66.6204 -20.3929 8.05576
rtibia 68.6253 0 0
rfoot -2.43097 13.3523 -0.069033
rtoes 2.52612 0 0
lowerback 11.1647 2.03531 -12.842
upperback -2.17755 0.599959 -1.46646
thorax -8.85359 0.844904 5.54066
lowerneck 1.08253 -11.5761 -12.5361
upperneck 5.48584 -16.1927 9.97762
head 3.30104 -8.15807 4.34085
lclavicle 3.39595e-14 5.35715e-15 3.75448e-31
lhumerus -66.351 -19.0625 104.239
lradius 100.899 0 0
lwrist 57.5528 0 0
lhand -9.9612 64.8578 0.232016
lfingers 7.12502 0 0
lthumb 15.6991 -24.9878 -2.61085
rclavicle 3.39595e-14 5.35715e-15 3.75448e-31
rhumerus 46.9179 -8.7909 -61.084
rradius 20.5876 0 0
rwrist 32.7104 0 0
rhand -16.3762 -42.4451 0.370123
rfingers 7.12502 0 0
rthumb 9.04881 -69.9935 1.80055
2244
root -0.745298 13.8215 -16.454 -172.669 -25.8613 170.477
lfemur 8.92883 1.0106 -14.3899
ltibia 38.9901 0 0
lfoot -25.0723 35.2622 0.0107374
ltoes -40.1134 0 0
rfemur -66.8637 -20.4508 8.10099
rtibia 68.88 0 0
rfoot -2.58091 13.3645 -0.0752875
rtoes 2.62943 0 0
lowerback 11.0482 2.03001 -12.8817
upperback -2.20695 0.599282 -1.48477
thorax -8.81958 0.844079 5.54408
lowerneck 1.03503 -11.577 -12.4929
upperneck 5.49288 -16.1896 9.97125
head 3.30775 -8.15449 4.3311
lclavicle 3.35125e-14 6.18716e-15 3.85733e-31
lhumerus -66.097 -19.1877 104.266
lradius 100.748 0 0
lwrist 57.4536 0 0
lhand -10.1409 64.4583 0.246089
lfingers 7.12502 0 0
lthumb 15.3496 -17.2582 -2.67237
rclavicle 3.35125e-14 6.18716e-15 3.85733e-31
rhumerus 46.7526 -8.74064 -61.0065
rradius 20.9556 0 0
rwrist 32.3052 0 0
rhand -16.1387 -42.3936 0.399632
rfingers 7.12502 0 0
rthumb 9.21625 -69.7469 1.94631
2245
root -0.748898 13.8147 -16.479 -172.477 -25.8069 170.413
lfemur 9.01376 0.95921 -14.4885
ltibia 38.6341 0 0
lfoot -24.9739 35.2957 0.0117725
ltoes -40.3759 0 0
rfemur -67.1483 -20.5302 8.1517
rtibia 69.1722 0 0
rfoot -2.76278 13.3875 -0.0806791
rtoes 2.74131 0 0
lowerback 10.9173 2.02653 -12.9278
upperback -2.24168 0.601288 -1.50853
thorax -8.78382 0.844703 5.54473
lowerneck 0.990635 -11.584 -12.4516
upperneck 5.48908 -16.1942 9.97042
head 3.3119 -8.15461 4.32287
lclavicle 3.30644e-14 7.09815e-15 3.91939e-31
lhumerus -65.9013 -19.2926 104.288
lradius 100.623 0 0
lwrist 57.4053 0 0
lhand -10.3174 64.05 0.255887
lfingers 7.12502 0 0
lthumb 15.0003 -9.30822 -2.67441
rclavicle 3.30644e-14 7.09815e-15 3.91939e-31
rhumerus 46.6297 -8.7079 -60.9184
rradius 21.2488 0 0
rwrist 31.9585 0 0
rhand -15.963 -42.3498 0.422304
rfingers 7.12502 0 0
rthumb 9.33823 -69.5517 2.0591
2246
root -0.752499 13.808 -16.5039 -172.25 -25.7536 170.333
lfemur 9.1292 0.897576 -14.5891
ltibia 38.2246 0 0
lfoot -24.8665 35.3444 0.0127764
ltoes -40.6696 0 0
rfemur -67.477 -20.6329 8.20846
rtibia 69.5045 0 0
rfoot -2.97927 13.4226 -0.0850246
rtoes 2.86213 0 0
lowerback 10.771 2.02505 -12.981
upperback -2.28211 0.606236 -1.53819
thorax -8.74629 0.846927 5.54232
lowerneck 0.949869 -11.5975 -12.4125
upperneck 5.47334 -16.2072 9.97569
head 3.3132 -8.15879 4.31636
lclavicle 3.2617e-14 8.0943e-15 3.93319e-31
lhumerus -65.771 -19.3745 104.306
lradius 100.526 0 0
lwrist 57.4134 0 0
lhand -10.4894 63.6337 0.261076
lfingers 7.12502 0 0
lthumb 14.6627 -1.15215 -2.61504
rclavicle 3.2617e-14 8.0943e-15 3.93319e-31
rhumerus 46.5542 -8.6947 -60.8187
rradius 21.4583 0 0
rwrist 31.6779 0 0
rhand -15.8564 -42.3147 0.437468
rfingers 7.12502 0 0
rthumb 9.40916 -69.4144 2.13554
